<svg version="1.1" id="Layer_1" xmlns="http://www.w3.org/2000/svg" xmlns:xlink="http://www.w3.org/1999/xlink" x="0px" y="0px"
	 width="100%" viewBox="0 0 1024 1024" enable-background="new 0 0 1024 1024" xml:space="preserve">
<path fill="#000000" opacity="1.000000" stroke="none" 
	d="
M644.000000,1025.000000 
	C429.333344,1025.000000 215.166672,1025.000000 1.000000,1025.000000 
	C1.000000,683.666687 1.000000,342.333344 1.000000,1.000000 
	C342.333344,1.000000 683.666687,1.000000 1025.000000,1.000000 
	C1025.000000,342.333344 1025.000000,683.666687 1025.000000,1025.000000 
	C898.166687,1025.000000 771.333313,1025.000000 644.000000,1025.000000 
M456.000092,665.998840 
	C456.000092,665.998840 456.071869,665.998596 455.906677,665.481323 
	C455.609222,665.291138 455.311768,665.100952 455.009735,664.976562 
	C455.009735,664.976562 455.075287,664.968933 454.926117,664.471985 
	C454.640289,664.296631 454.354462,664.121338 454.009033,663.238098 
	C449.924744,658.587097 445.848541,653.929016 441.754517,649.286621 
	C431.813232,638.013550 421.877625,626.735352 411.909912,615.485657 
	C408.430328,611.558594 404.829254,607.739258 401.343353,603.817688 
	C394.192749,595.773315 387.082489,587.693054 379.903351,579.308044 
	C379.773895,579.097229 379.586334,579.007935 378.805847,578.358398 
	C378.195923,579.793152 377.058807,581.226135 377.053864,582.662964 
	C376.953979,611.791626 376.961975,640.920593 376.994812,670.049561 
	C377.020691,693.015625 377.109161,715.981506 377.389343,739.792847 
	C378.050293,739.858826 378.711212,739.982544 379.372162,739.982666 
	C460.018280,739.994141 540.664368,740.000427 621.310486,739.960999 
	C622.476562,739.960449 623.642334,739.383118 624.942505,738.136597 
	C624.908264,696.137146 624.874023,654.137695 624.870239,611.432495 
	C620.094482,605.289124 615.315918,599.148071 610.543640,593.001953 
	C602.588257,582.756287 594.659729,572.489746 586.677002,562.265564 
	C580.384705,554.206543 574.054199,546.177002 567.691528,538.173462 
	C562.436218,531.562866 557.082703,525.030396 551.821228,518.424561 
	C547.200806,512.623474 542.647888,506.768616 538.024780,500.216370 
	C537.274475,499.257629 536.524170,498.298889 535.005188,496.357941 
	C535.005188,507.570953 535.008545,517.229675 535.002991,526.888428 
	C535.001465,529.563538 534.973389,532.238647 534.179626,535.330994 
	C534.135193,537.155640 534.054138,538.980164 534.051819,540.804871 
	C533.998718,583.189941 533.954224,625.574951 533.986938,667.949036 
	C533.986938,667.949036 533.975403,667.870239 533.046143,667.979309 
	C508.330231,668.044617 483.614288,668.109863 458.404907,667.886780 
	C457.943237,667.566833 457.481567,667.246887 457.013885,666.993652 
	C457.013885,666.993652 457.080933,666.991211 456.904846,666.476440 
	C456.603271,666.293335 456.301727,666.110229 456.000092,665.998840 
M424.186066,287.418427 
	C424.111847,289.571564 423.974335,291.724640 423.972656,293.877838 
	C423.938721,337.904205 423.920288,381.930542 423.253723,425.748505 
	C416.665985,417.845978 410.075775,409.945496 403.491180,402.040314 
	C396.615662,393.785889 389.797791,385.482697 382.857330,377.283264 
	C376.847931,370.183716 370.613037,363.274384 364.636902,356.147522 
	C354.885162,344.518066 345.300323,332.748840 335.573822,321.098022 
	C328.209808,312.277039 320.924866,303.376312 313.210022,294.869049 
	C310.362946,291.729584 306.430847,287.447052 302.918243,287.375305 
	C275.314209,286.811249 247.691879,287.142303 219.547348,287.085205 
	C219.370453,287.117859 219.193573,287.150543 218.169861,287.399811 
	C218.106384,304.931030 218.032791,322.462250 218.017715,339.993500 
	C218.017136,340.668854 218.579422,341.344696 218.696198,342.774109 
	C218.755905,346.178497 218.815628,349.582916 218.118057,353.414673 
	C218.070648,360.144745 217.931351,366.876038 218.019684,373.604309 
	C218.056549,376.411621 218.577682,379.212555 218.989243,382.763397 
	C218.952454,384.836090 218.915649,386.908752 218.118607,389.406311 
	C218.072739,415.598297 218.020096,441.790314 218.018692,467.982300 
	C218.018646,468.660309 218.578857,469.338348 218.674500,470.798981 
	C218.741913,474.193237 218.809341,477.587494 218.117081,481.407196 
	C218.070145,490.784271 217.982727,500.161499 218.017624,509.538269 
	C218.023178,511.033508 218.577576,512.526672 218.709396,514.759705 
	C218.748489,516.614807 218.817062,518.469910 218.821838,520.325073 
	C218.849854,531.210876 218.862961,542.096741 218.121414,553.407959 
	C218.074570,564.939636 218.012497,576.471313 218.019775,588.002991 
	C218.020203,588.674622 218.582336,589.345947 218.800934,590.673523 
	C218.594986,596.020813 218.192032,601.369446 218.229095,606.715088 
	C218.285217,614.804993 218.647675,622.892761 218.118835,631.405029 
	C218.071304,635.500366 217.887085,639.599915 218.014603,643.689758 
	C218.142883,647.804565 218.581238,651.909668 218.679642,656.795227 
	C218.493210,663.280090 218.177536,669.764465 218.151352,676.250000 
	C218.114212,685.454956 218.239273,694.661560 218.389648,703.865906 
	C218.535751,712.809509 218.802475,721.751160 219.013474,730.693665 
	C219.080429,733.530334 219.138611,736.367249 219.701736,739.848511 
	C246.174347,739.842163 272.646973,739.835754 299.910034,739.500183 
	C299.939362,737.501343 299.994232,735.502441 299.994324,733.503601 
	C299.999207,626.692383 299.994537,519.881226 300.038330,413.070068 
	C300.039154,411.065430 300.608856,409.061035 301.157410,407.692719 
	C309.649719,417.839691 318.162811,427.969360 326.628296,438.138611 
	C334.703339,447.838806 342.654633,457.642914 350.796753,467.286163 
	C359.005615,477.008453 367.449799,486.531952 375.666199,496.247986 
	C383.754883,505.812866 391.596619,515.587036 399.715179,525.126038 
	C406.837067,533.493896 414.326508,541.550049 421.408020,549.950867 
	C428.895569,558.833252 435.987671,568.048340 443.445587,576.956482 
	C451.355682,586.404663 459.516388,595.642639 467.524597,605.009155 
	C477.103363,616.212585 486.636658,627.454895 496.189423,638.680542 
	C498.450104,641.337097 500.710022,643.994324 502.970276,646.651245 
	C503.378571,646.463867 503.786896,646.276550 504.195190,646.089233 
	C504.195190,560.136353 504.195190,474.183411 504.195190,386.964600 
	C507.620483,391.084198 510.200317,394.148773 512.738647,397.247314 
	C519.152954,405.077179 525.634338,412.854279 531.928223,420.780060 
	C538.499939,429.055756 544.775940,437.567017 551.378357,445.817535 
	C559.037354,455.388428 567.013855,464.705414 574.665771,474.281830 
	C584.581726,486.691681 594.241760,499.305817 604.144409,511.726501 
	C613.795776,523.832031 623.690002,535.743958 633.339111,547.851257 
	C644.584473,561.961487 655.672913,576.196716 666.842041,590.367737 
	C675.609680,601.491699 684.355957,612.632874 693.187622,623.705994 
	C700.328125,632.658813 707.654541,641.463745 714.765930,650.439331 
	C722.946472,660.764404 730.987000,671.200500 739.077576,681.596802 
	C747.053772,691.846313 754.998535,702.120300 762.990295,712.357605 
	C769.959351,721.284790 776.974609,730.175842 784.476624,739.781433 
	C791.110229,739.849548 797.744751,739.986694 804.376221,739.898315 
	C805.204163,739.887268 806.016174,738.683350 806.974670,737.095337 
	C806.983643,588.616821 806.995544,440.138275 806.960327,291.659760 
	C806.959961,290.170319 806.335999,288.680969 805.077820,287.028625 
	C779.702087,287.073517 754.326355,287.118408 728.507019,287.062927 
	C728.507019,287.062927 728.066895,287.178009 727.437073,287.064667 
	C727.226379,287.098358 727.015747,287.132019 726.143677,287.654938 
	C726.100525,289.485352 726.019836,291.315735 726.019714,293.146149 
	C726.014709,360.446472 726.027649,427.746796 726.009460,495.047119 
	C726.005981,507.703583 725.882446,520.360046 725.214600,532.726501 
	C716.258606,521.759460 707.186035,510.885071 698.374878,499.802979 
	C686.163757,484.444580 674.203003,468.887421 662.033875,453.495361 
	C651.569946,440.260132 640.889526,427.195892 630.441772,413.948029 
	C619.800903,400.455139 609.409546,386.765259 598.757202,373.281555 
	C588.087036,359.775208 577.214783,346.428619 566.457642,332.990753 
	C554.236755,317.724396 542.045227,302.434509 528.943054,287.023041 
	C511.931580,287.074524 494.920105,287.126038 477.305237,287.059845 
	C476.899231,287.099182 476.493195,287.138519 475.190125,287.023041 
	C472.774200,287.073517 470.358276,287.123993 467.327942,287.056946 
	C466.914612,287.096222 466.501282,287.135498 465.144775,287.021240 
	C451.770538,287.070435 438.396271,287.119629 424.186066,287.418427 
z"/>
<path fill="#1CACC8" opacity="1.000000" stroke="none" 
	d="
M466.087952,287.174805 
	C466.501282,287.135498 466.914612,287.096222 467.892395,287.367096 
	C471.115631,289.273468 473.710907,289.898468 476.087189,287.177856 
	C476.493195,287.138519 476.899231,287.099182 477.841003,287.420929 
	C479.766418,288.172028 481.154114,288.892731 482.546051,288.900879 
	C496.467194,288.982513 510.389740,289.013031 524.309814,288.865082 
	C526.159424,288.845428 527.997498,287.751373 529.840942,287.154877 
	C542.045227,302.434509 554.236755,317.724396 566.457642,332.990753 
	C577.214783,346.428619 588.087036,359.775208 598.757202,373.281555 
	C609.409546,386.765259 619.800903,400.455139 630.441772,413.948029 
	C640.889526,427.195892 651.569946,440.260132 662.033875,453.495361 
	C674.203003,468.887421 686.163757,484.444580 698.374878,499.802979 
	C707.186035,510.885071 716.258606,521.759460 725.822876,532.889343 
	C726.636353,533.035767 726.841431,533.019287 727.238220,532.638184 
	C727.614563,529.632996 727.958923,526.992676 727.960815,524.352112 
	C728.016968,445.294067 728.039246,366.236053 728.066895,287.178009 
	C728.066895,287.178009 728.507019,287.062927 728.953979,287.418304 
	C731.462280,288.169525 733.522095,288.900787 735.585022,288.909363 
	C756.242126,288.995453 776.899719,288.959412 797.557190,288.965088 
	C804.992798,288.967163 805.015747,288.976227 805.016602,296.500122 
	C805.022522,348.310394 805.017578,400.120667 805.017212,451.930939 
	C805.016479,544.889587 805.018127,637.848206 805.013245,730.806885 
	C805.012878,737.981689 804.989136,737.860291 797.750610,738.053345 
	C793.151001,738.176086 788.562744,738.725037 783.969421,739.082886 
	C776.974609,730.175842 769.959351,721.284790 762.990295,712.357605 
	C754.998535,702.120300 747.053772,691.846313 739.077576,681.596802 
	C730.987000,671.200500 722.946472,660.764404 714.765930,650.439331 
	C707.654541,641.463745 700.328125,632.658813 693.187622,623.705994 
	C684.355957,612.632874 675.609680,601.491699 666.842041,590.367737 
	C655.672913,576.196716 644.584473,561.961487 633.339111,547.851257 
	C623.690002,535.743958 613.795776,523.832031 604.144409,511.726501 
	C594.241760,499.305817 584.581726,486.691681 574.665771,474.281830 
	C567.013855,464.705414 559.037354,455.388428 551.378357,445.817535 
	C544.775940,437.567017 538.499939,429.055756 531.928223,420.780060 
	C525.634338,412.854279 519.152954,405.077179 512.738647,397.247314 
	C510.200317,394.148773 507.620483,391.084198 504.195190,386.964600 
	C504.195190,474.183411 504.195190,560.136353 504.195190,646.089233 
	C503.786896,646.276550 503.378571,646.463867 502.970276,646.651245 
	C500.710022,643.994324 498.450104,641.337097 496.189423,638.680542 
	C486.636658,627.454895 477.103363,616.212585 467.524597,605.009155 
	C459.516388,595.642639 451.355682,586.404663 443.445587,576.956482 
	C435.987671,568.048340 428.895569,558.833252 421.408020,549.950867 
	C414.326508,541.550049 406.837067,533.493896 399.715179,525.126038 
	C391.596619,515.587036 383.754883,505.812866 375.666199,496.247986 
	C367.449799,486.531952 359.005615,477.008453 350.796753,467.286163 
	C342.654633,457.642914 334.703339,447.838806 326.628296,438.138611 
	C318.162811,427.969360 309.649719,417.839691 300.994324,407.130402 
	C300.177826,406.383881 299.524414,406.199677 298.686951,406.382111 
	C298.336334,410.062531 298.024841,413.376251 298.024139,416.690063 
	C298.002289,521.157166 298.010925,625.624268 298.013855,730.091370 
	C298.014069,738.005920 298.010406,738.011780 289.977783,738.012634 
	C269.151001,738.014954 248.324234,738.015259 227.497467,738.008667 
	C220.011093,738.006348 219.994110,737.996399 219.993469,730.556885 
	C219.987656,663.911194 219.976410,597.265564 219.990051,530.619873 
	C220.006653,449.479126 220.045792,368.338348 220.075180,287.197601 
	C247.691879,287.142303 275.314209,286.811249 302.918243,287.375305 
	C306.430847,287.447052 310.362946,291.729584 313.210022,294.869049 
	C320.924866,303.376312 328.209808,312.277039 335.573822,321.098022 
	C345.300323,332.748840 354.885162,344.518066 364.636902,356.147522 
	C370.613037,363.274384 376.847931,370.183716 382.857330,377.283264 
	C389.797791,385.482697 396.615662,393.785889 403.491180,402.040314 
	C410.075775,409.945496 416.665985,417.845978 423.864929,425.891907 
	C424.670227,426.026550 424.864319,426.017761 425.251892,425.644592 
	C425.624939,422.973022 425.959259,420.665894 425.960968,418.358521 
	C425.991608,377.096924 426.048920,335.834991 425.886780,294.574005 
	C425.868744,289.986298 427.084259,288.623077 431.760254,288.830017 
	C441.225372,289.248871 450.723633,289.059967 460.203766,288.882538 
	C462.175110,288.845642 464.127075,287.771088 466.087952,287.174805 
z"/>
<path fill="#1CACC8" opacity="1.000000" stroke="none" 
	d="
M379.955597,579.627625 
	C387.082489,587.693054 394.192749,595.773315 401.343353,603.817688 
	C404.829254,607.739258 408.430328,611.558594 411.909912,615.485657 
	C421.877625,626.735352 431.813232,638.013550 441.754517,649.286621 
	C445.848541,653.929016 449.924744,658.587097 454.014404,663.757324 
	C454.371582,664.507385 454.723419,664.738159 455.075256,664.968933 
	C455.075287,664.968933 455.009735,664.976562 455.151733,665.158569 
	C455.553131,665.559937 455.812500,665.779297 456.071869,665.998596 
	C456.071869,665.998596 456.000092,665.998840 456.145020,666.174194 
	C456.553650,666.563354 456.817291,666.777283 457.080933,666.991211 
	C457.080933,666.991211 457.013885,666.993652 457.129089,667.249268 
	C457.881287,667.993347 458.518280,668.481873 459.093689,669.010498 
	C459.032135,669.050598 458.951599,668.927673 459.316956,669.129272 
	C460.977325,669.544067 462.271973,669.940613 463.567352,669.943054 
	C485.450623,669.983765 507.334106,669.996826 529.217285,669.933594 
	C530.809387,669.929016 532.399719,669.292908 534.006104,668.680054 
	C534.006104,668.229919 533.990784,668.050110 533.975403,667.870239 
	C533.975403,667.870239 533.986938,667.949036 534.191956,667.962402 
	C534.396973,667.975769 534.886108,667.978577 535.104004,667.627930 
	C535.543274,664.982544 535.955811,662.687988 535.957947,660.393005 
	C536.005249,609.851074 535.976562,559.309082 536.104614,508.767395 
	C536.111206,506.155792 537.382568,503.547424 538.065125,500.937531 
	C542.647888,506.768616 547.200806,512.623474 551.821228,518.424561 
	C557.082703,525.030396 562.436218,531.562866 567.691528,538.173462 
	C574.054199,546.177002 580.384705,554.206543 586.677002,562.265564 
	C594.659729,572.489746 602.588257,582.756287 610.543640,593.001953 
	C615.315918,599.148071 620.094482,605.289124 624.674194,612.138794 
	C624.311523,615.326050 624.001892,617.806824 623.999695,620.287903 
	C623.967468,657.272034 623.981995,694.256165 623.968628,731.240295 
	C623.966248,737.835754 623.796021,738.005554 617.280212,738.006287 
	C540.146667,738.014771 463.013092,738.015015 385.879547,738.008850 
	C379.052673,738.008301 378.984619,737.932129 378.983582,730.947449 
	C378.976593,683.134644 378.963562,635.321777 379.020081,587.509033 
	C379.023163,584.881531 379.629852,582.254761 379.955597,579.627625 
z"/>
<path fill="#019ABF" opacity="1.000000" stroke="none" 
	d="
M219.811264,287.141418 
	C220.045792,368.338348 220.006653,449.479126 219.990051,530.619873 
	C219.976410,597.265564 219.987656,663.911194 219.993469,730.556885 
	C219.994110,737.996399 220.011093,738.006348 227.497467,738.008667 
	C248.324234,738.015259 269.151001,738.014954 289.977783,738.012634 
	C298.010406,738.011780 298.014069,738.005920 298.013855,730.091370 
	C298.010925,625.624268 298.002289,521.157166 298.024139,416.690063 
	C298.024841,413.376251 298.336334,410.062531 298.717987,406.849243 
	C298.951050,517.634216 298.969086,628.318665 298.519684,739.017700 
	C271.768433,739.089539 245.484619,739.146790 219.200806,739.204041 
	C219.138611,736.367249 219.080429,733.530334 219.013474,730.693665 
	C218.802475,721.751160 218.535751,712.809509 218.389648,703.865906 
	C218.239273,694.661560 218.114212,685.454956 218.151352,676.250000 
	C218.177536,669.764465 218.493210,663.280090 218.846741,655.941162 
	C218.969208,647.051880 218.924576,639.016663 218.879974,630.981445 
	C218.647675,622.892761 218.285217,614.804993 218.229095,606.715088 
	C218.192032,601.369446 218.594986,596.020813 218.906219,589.879517 
	C218.968048,577.051147 218.924576,565.016846 218.881104,552.982544 
	C218.862961,542.096741 218.849854,531.210876 218.821838,520.325073 
	C218.817062,518.469910 218.748489,516.614807 218.860901,513.924377 
	C218.967194,502.386627 218.921982,491.684174 218.876755,480.981750 
	C218.809341,477.587494 218.741913,474.193237 218.841003,469.941833 
	C218.964615,442.383606 218.921738,415.682526 218.878860,388.981445 
	C218.915649,386.908752 218.952454,384.836090 218.998962,381.924072 
	C218.964233,371.718903 218.919785,362.353119 218.875336,352.987305 
	C218.815628,349.582916 218.755905,346.178497 218.854218,341.931335 
	C219.013718,323.120117 219.015198,305.151672 219.016678,287.183258 
	C219.193573,287.150543 219.370453,287.117859 219.811264,287.141418 
z"/>
<path fill="#019ABF" opacity="1.000000" stroke="none" 
	d="
M784.223022,739.432129 
	C788.562744,738.725037 793.151001,738.176086 797.750610,738.053345 
	C804.989136,737.860291 805.012878,737.981689 805.013245,730.806885 
	C805.018127,637.848206 805.016479,544.889587 805.017212,451.930939 
	C805.017578,400.120667 805.022522,348.310394 805.016602,296.500122 
	C805.015747,288.976227 804.992798,288.967163 797.557190,288.965088 
	C776.899719,288.959412 756.242126,288.995453 735.585022,288.909363 
	C733.522095,288.900787 731.462280,288.169525 729.175781,287.468506 
	C754.326355,287.118408 779.702087,287.073517 805.542297,287.566528 
	C806.000122,436.127777 805.990295,584.151123 806.022156,732.174438 
	C806.022583,734.127075 806.552673,736.079651 806.835571,738.032227 
	C806.016174,738.683350 805.204163,739.887268 804.376221,739.898315 
	C797.744751,739.986694 791.110229,739.849548 784.223022,739.432129 
z"/>
<path fill="#019ABF" opacity="1.000000" stroke="none" 
	d="
M379.929474,579.467834 
	C379.629852,582.254761 379.023163,584.881531 379.020081,587.509033 
	C378.963562,635.321777 378.976593,683.134644 378.983582,730.947449 
	C378.984619,737.932129 379.052673,738.008301 385.879547,738.008850 
	C463.013092,738.015015 540.146667,738.014771 617.280212,738.006287 
	C623.796021,738.005554 623.966248,737.835754 623.968628,731.240295 
	C623.981995,694.256165 623.967468,657.272034 623.999695,620.287903 
	C624.001892,617.806824 624.311523,615.326050 624.658936,612.491699 
	C624.874023,654.137695 624.908264,696.137146 624.418701,738.605103 
	C592.410217,739.051636 560.925476,739.032166 529.440735,739.007019 
	C478.966553,738.966614 428.492371,738.922363 378.027069,738.420044 
	C378.040710,687.375000 378.027863,636.789551 378.104919,586.204224 
	C378.108582,583.815552 378.910492,581.428101 379.340637,579.040039 
	C379.586334,579.007935 379.773895,579.097229 379.929474,579.467834 
z"/>
<path fill="#1CACC8" opacity="1.000000" stroke="none" 
	d="
M806.905151,737.563782 
	C806.552673,736.079651 806.022583,734.127075 806.022156,732.174438 
	C805.990295,584.151123 806.000122,436.127777 806.004944,287.648010 
	C806.335999,288.680969 806.959961,290.170319 806.960327,291.659760 
	C806.995544,440.138275 806.983643,588.616821 806.905151,737.563782 
z"/>
<path fill="#BFE3E2" opacity="1.000000" stroke="none" 
	d="
M298.987122,739.003113 
	C298.969086,628.318665 298.951050,517.634216 298.901978,406.482605 
	C299.524414,406.199677 300.177826,406.383881 300.872192,406.812317 
	C300.608856,409.061035 300.039154,411.065430 300.038330,413.070068 
	C299.994537,519.881226 299.999207,626.692383 299.994324,733.503601 
	C299.994232,735.502441 299.939362,737.501343 299.497406,739.455627 
	C299.084778,739.411072 298.987122,739.003113 298.987122,739.003113 
z"/>
<path fill="#72C7D5" opacity="1.000000" stroke="none" 
	d="
M378.018188,738.879761 
	C428.492371,738.922363 478.966553,738.966614 529.440735,739.007019 
	C560.925476,739.032166 592.410217,739.051636 624.351624,739.074341 
	C623.642334,739.383118 622.476562,739.960449 621.310486,739.960999 
	C540.664368,740.000427 460.018280,739.994141 379.372162,739.982666 
	C378.711212,739.982544 378.050293,739.858826 377.492371,739.362305 
	C377.595367,738.931824 378.018188,738.879761 378.018188,738.879761 
z"/>
<path fill="#019ABF" opacity="1.000000" stroke="none" 
	d="
M727.751953,287.121338 
	C728.039246,366.236053 728.016968,445.294067 727.960815,524.352112 
	C727.958923,526.992676 727.614563,529.632996 727.242065,532.169312 
	C727.010315,495.246857 726.960876,458.428436 726.923889,421.610046 
	C726.878906,376.795258 726.844299,331.980438 726.805176,287.165649 
	C727.015747,287.132019 727.226379,287.098358 727.751953,287.121338 
z"/>
<path fill="#72C7D5" opacity="1.000000" stroke="none" 
	d="
M726.474487,287.410278 
	C726.844299,331.980438 726.878906,376.795258 726.923889,421.610046 
	C726.960876,458.428436 727.010315,495.246857 727.050415,532.534058 
	C726.841431,533.019287 726.636353,533.035767 726.122742,533.034363 
	C725.882446,520.360046 726.005981,507.703583 726.009460,495.047119 
	C726.027649,427.746796 726.014709,360.446472 726.019714,293.146149 
	C726.019836,291.315735 726.100525,289.485352 726.474487,287.410278 
z"/>
<path fill="#019ABF" opacity="1.000000" stroke="none" 
	d="
M465.616364,287.098022 
	C464.127075,287.771088 462.175110,288.845642 460.203766,288.882538 
	C450.723633,289.059967 441.225372,289.248871 431.760254,288.830017 
	C427.084259,288.623077 425.868744,289.986298 425.886780,294.574005 
	C426.048920,335.834991 425.991608,377.096924 425.960968,418.358521 
	C425.959259,420.665894 425.624939,422.973022 425.278687,425.175873 
	C425.081970,379.103943 425.052002,333.136353 425.022034,287.168823 
	C438.396271,287.119629 451.770538,287.070435 465.616364,287.098022 
z"/>
<path fill="#019ABF" opacity="1.000000" stroke="none" 
	d="
M538.044922,500.576965 
	C537.382568,503.547424 536.111206,506.155792 536.104614,508.767395 
	C535.976562,559.309082 536.005249,609.851074 535.957947,660.393005 
	C535.955811,662.687988 535.543274,664.982544 535.087830,667.161072 
	C534.888306,623.001099 534.922913,578.957458 534.957458,534.913757 
	C534.973389,532.238647 535.001465,529.563538 535.002991,526.888428 
	C535.008545,517.229675 535.005188,507.570953 535.005188,496.357941 
	C536.524170,498.298889 537.274475,499.257629 538.044922,500.576965 
z"/>
<path fill="#1CACC8" opacity="1.000000" stroke="none" 
	d="
M378.027069,738.420044 
	C378.018188,738.879761 377.595367,738.931824 377.382599,738.939697 
	C377.109161,715.981506 377.020691,693.015625 376.994812,670.049561 
	C376.961975,640.920593 376.953979,611.791626 377.053864,582.662964 
	C377.058807,581.226135 378.195923,579.793152 379.073242,578.699219 
	C378.910492,581.428101 378.108582,583.815552 378.104919,586.204224 
	C378.027863,636.789551 378.040710,687.375000 378.027069,738.420044 
z"/>
<path fill="#72C7D5" opacity="1.000000" stroke="none" 
	d="
M424.604065,287.293610 
	C425.052002,333.136353 425.081970,379.103943 425.085144,425.540222 
	C424.864319,426.017761 424.670227,426.026550 424.187439,425.996124 
	C423.920288,381.930542 423.938721,337.904205 423.972656,293.877838 
	C423.974335,291.724640 424.111847,289.571564 424.604065,287.293610 
z"/>
<path fill="#72C7D5" opacity="1.000000" stroke="none" 
	d="
M534.568542,535.122375 
	C534.922913,578.957458 534.888306,623.001099 534.869934,667.511719 
	C534.886108,667.978577 534.396973,667.975769 534.152588,667.967896 
	C533.954224,625.574951 533.998718,583.189941 534.051819,540.804871 
	C534.054138,538.980164 534.135193,537.155640 534.568542,535.122375 
z"/>
<path fill="#019ABF" opacity="1.000000" stroke="none" 
	d="
M529.391968,287.088959 
	C527.997498,287.751373 526.159424,288.845428 524.309814,288.865082 
	C510.389740,289.013031 496.467194,288.982513 482.546051,288.900879 
	C481.154114,288.892731 479.766418,288.172028 478.142700,287.479797 
	C494.920105,287.126038 511.931580,287.074524 529.391968,287.088959 
z"/>
<path fill="#BFE3E2" opacity="1.000000" stroke="none" 
	d="
M218.498734,389.193878 
	C218.921738,415.682526 218.964615,442.383606 218.942642,469.550537 
	C218.578857,469.338348 218.018646,468.660309 218.018692,467.982300 
	C218.020096,441.790314 218.072739,415.598297 218.498734,389.193878 
z"/>
<path fill="#72C7D5" opacity="1.000000" stroke="none" 
	d="
M298.519684,739.017700 
	C298.987122,739.003113 299.084778,739.411072 299.102173,739.620239 
	C272.646973,739.835754 246.174347,739.842163 219.451263,739.526245 
	C245.484619,739.146790 271.768433,739.089539 298.519684,739.017700 
z"/>
<path fill="#BFE3E2" opacity="1.000000" stroke="none" 
	d="
M533.510742,667.924805 
	C533.990784,668.050110 534.006104,668.229919 533.538452,668.699402 
	C508.354218,668.968567 483.652924,668.948120 458.951599,668.927673 
	C458.951599,668.927673 459.032135,669.050598 459.020447,668.814148 
	C459.008789,668.577698 458.898376,668.175171 458.898376,668.175171 
	C483.614288,668.109863 508.330231,668.044617 533.510742,667.924805 
z"/>
<path fill="#BFE3E2" opacity="1.000000" stroke="none" 
	d="
M218.593262,287.291534 
	C219.015198,305.151672 219.013718,323.120117 218.945816,341.554413 
	C218.579422,341.344696 218.017136,340.668854 218.017715,339.993500 
	C218.032791,322.462250 218.106384,304.931030 218.593262,287.291534 
z"/>
<path fill="#BFE3E2" opacity="1.000000" stroke="none" 
	d="
M218.501251,553.195251 
	C218.924576,565.016846 218.968048,577.051147 218.947281,589.551392 
	C218.582336,589.345947 218.020203,588.674622 218.019775,588.002991 
	C218.012497,576.471313 218.074570,564.939636 218.501251,553.195251 
z"/>
<path fill="#BFE3E2" opacity="1.000000" stroke="none" 
	d="
M218.496918,481.194458 
	C218.921982,491.684174 218.967194,502.386627 218.945312,513.554932 
	C218.577576,512.526672 218.023178,511.033508 218.017624,509.538269 
	C217.982727,500.161499 218.070145,490.784271 218.496918,481.194458 
z"/>
<path fill="#BFE3E2" opacity="1.000000" stroke="none" 
	d="
M218.496704,353.200989 
	C218.919785,362.353119 218.964233,371.718903 218.943665,381.550537 
	C218.577682,379.212555 218.056549,376.411621 218.019684,373.604309 
	C217.931351,366.876038 218.070648,360.144745 218.496704,353.200989 
z"/>
<path fill="#BFE3E2" opacity="1.000000" stroke="none" 
	d="
M218.499390,631.193237 
	C218.924576,639.016663 218.969208,647.051880 218.948761,655.553101 
	C218.581238,651.909668 218.142883,647.804565 218.014603,643.689758 
	C217.887085,639.599915 218.071304,635.500366 218.499390,631.193237 
z"/>
<path fill="#019ABF" opacity="1.000000" stroke="none" 
	d="
M475.638672,287.100464 
	C473.710907,289.898468 471.115631,289.273468 468.199585,287.425842 
	C470.358276,287.123993 472.774200,287.073517 475.638672,287.100464 
z"/>
<path fill="#019ABF" opacity="1.000000" stroke="none" 
	d="
M458.651642,668.031006 
	C458.898376,668.175171 459.008789,668.577698 459.082031,668.774048 
	C458.518280,668.481873 457.881287,667.993347 457.132080,667.215881 
	C457.481567,667.246887 457.943237,667.566833 458.651642,668.031006 
z"/>
<path fill="#019ABF" opacity="1.000000" stroke="none" 
	d="
M455.000671,664.720459 
	C454.723419,664.738159 454.371582,664.507385 454.044189,664.111328 
	C454.354462,664.121338 454.640289,664.296631 455.000671,664.720459 
z"/>
<path fill="#019ABF" opacity="1.000000" stroke="none" 
	d="
M455.989258,665.739990 
	C455.812500,665.779297 455.553131,665.559937 455.154053,665.125732 
	C455.311768,665.100952 455.609222,665.291138 455.989258,665.739990 
z"/>
<path fill="#019ABF" opacity="1.000000" stroke="none" 
	d="
M456.992889,666.733826 
	C456.817291,666.777283 456.553650,666.563354 456.145081,666.138306 
	C456.301727,666.110229 456.603271,666.293335 456.992889,666.733826 
z"/>
<path fill="#019ABF" opacity="1.000000" stroke="none" 
	d="
M459.316956,669.129272 
	C483.652924,668.948120 508.354218,668.968567 533.523193,668.969727 
	C532.399719,669.292908 530.809387,669.929016 529.217285,669.933594 
	C507.334106,669.996826 485.450623,669.983765 463.567352,669.943054 
	C462.271973,669.940613 460.977325,669.544067 459.316956,669.129272 
z"/>
</svg>